<?xml version="1.0" encoding="UTF-8" standalone="no"?>
<!-- Created with Inkscape (http://www.inkscape.org/) -->

<svg
   width="80.343636mm"
   height="82.479645mm"
   viewBox="0 0 80.343636 82.479645"
   version="1.1"
   id="svg1"
   xmlns="http://www.w3.org/2000/svg"
   xmlns:svg="http://www.w3.org/2000/svg">
  <defs
     id="defs1">
    <linearGradient
       id="Dégradé_sans_nom_60"
       x1="111.64"
       y1="89.089996"
       x2="359.25"
       y2="337.91"
       gradientUnits="userSpaceOnUse"
       gradientTransform="matrix(0.26458333,0,0,0.26458333,26.23461,70.738995)">
      <stop
         offset="0"
         stop-color="#e57700"
         id="stop1" />
      <stop
         offset=".31"
         stop-color="#eda453"
         id="stop2" />
      <stop
         offset=".65"
         stop-color="#f6d2a5"
         id="stop3" />
      <stop
         offset=".88"
         stop-color="#fbeed9"
         id="stop4" />
      <stop
         offset="1"
         stop-color="#fefaed"
         id="stop5" />
    </linearGradient>
  </defs>
  <g
     id="layer1"
     transform="translate(-45.474847,-82.007207)">
    <path
       d="m 85.641505,84.179828 c -12.091458,0 -23.442083,5.672667 -30.813375,14.131395 -0.849312,0 -2.598208,-0.0265 -3.92377,-0.0265 -0.849313,0 -1.484313,0.74348 -1.325563,1.56369 0.3175,1.801807 0.849313,4.558767 1.060979,4.825997 -3.394604,6.01927 -5.275791,12.99104 -5.1435,20.41525 0.396875,21.71435 18.216563,39.29062 39.936208,39.39646 22.275276,0.13229 40.385996,-17.89642 40.385996,-40.13994 -0.0264,-22.19056 -18.00489,-40.166352 -40.174329,-40.166352 v 0 z m 25.802165,67.474042 c 0.0185,-0.0185 0.0344,-0.0265 0.0529,-0.0265 -3.20939,3.07446 -6.97441,5.56683 -11.10985,7.31837 -0.0794,0.0265 -0.15875,0.0794 -0.23813,0.10584 -0.13229,0.0529 -0.29104,0.13229 -0.44979,0.1852 -0.185208,0.0529 -0.343958,0.1323 -0.502708,0.18521 -0.05292,0.0265 -0.132292,0.0529 -0.185208,0.0794 -3.579813,1.35202 -7.424208,2.17487 -11.43,2.36008 h -0.264583 c -0.15875,0 -0.3175,0 -0.502709,0.0265 h -1.883833 c -0.132292,0 -0.291042,0 -0.423333,-0.0265 -0.291042,0 -0.555625,-0.0265 -0.822855,-0.0529 -0.185208,0 -0.343958,-0.0265 -0.529166,-0.0265 -3.421062,-0.23813 -6.736291,-0.95515 -9.837208,-2.0955 0.01852,-0.0185 0.0344,-0.0344 0.05292,-0.0529 1.457854,-2.17488 0.132291,0.15875 1.563687,-2.43946 0.582083,-1.08744 1.087438,-2.12196 1.537229,-3.12737 1.246188,-2.8628 1.93675,-5.2758 2.307167,-6.83948 0.15875,-0.76994 0.264583,-1.32557 0.3175,-1.61661 0,0 -0.02646,0.0265 -0.02646,0.0529 -2.997729,5.35517 -4.614333,8.05921 -6.469062,9.64935 -1.034521,0.90223 -2.148417,1.4314 -3.579813,1.85473 -0.582083,0.0529 -1.113896,-0.0265 -1.563687,-0.18521 -0.611188,-0.34395 -1.21973,-0.71702 -1.804459,-1.08743 -0.132291,-0.13229 -0.264583,-0.26459 -0.343958,-0.39688 0.423333,-0.44979 1.060979,-1.19327 1.883833,-2.33362 1.616604,-2.28071 2.492375,-3.12738 4.191,-5.80496 0.769938,-1.21973 1.404938,-2.43946 1.93675,-3.63273 1.669521,-3.76502 2.174875,-6.97177 2.121958,-7.31838 0,-0.0185 -0.0079,-0.0185 -0.02646,0 -0.02646,0.0794 -0.07937,0.1323 -0.105833,0.21167 -3.897312,7.92692 -8.485187,12.24756 -11.853333,13.89327 l -0.3175,0.15875 c -2.069042,0.92869 -3.315229,0.0794 -4.003146,-0.84931 -0.502708,-0.71702 -0.717021,-1.45785 -0.717021,-1.45785 -0.05292,-0.15875 -0.132291,-0.3175 -0.185208,-0.4498 0.611187,-0.635 1.563687,-1.6166 2.836333,-2.94216 2.360084,-2.43946 3.870854,-4.45294 4.905375,-5.99282 2.915709,-4.37356 4.429125,-9.86366 4.852458,-11.98297 0.132292,-0.60855 0.15875,-0.92869 0.105834,-0.90223 h -0.02646 c -2.042583,5.1435 -9.069917,14.13139 -13.763625,16.33008 -1.93675,0.90223 -3.209396,0.39687 -4.003146,-0.42333 -0.185209,-0.18521 -0.370417,-0.39688 -0.502708,-0.60855 -0.07937,-0.13229 -0.15875,-0.26458 -0.238125,-0.39687 -0.132292,-0.26458 -0.264584,-0.50271 -0.370417,-0.76994 -0.07937,-0.21166 -0.132292,-0.37041 -0.132292,-0.37041 -0.05292,-0.1323 -0.07937,-0.23813 -0.132291,-0.34396 -0.05292,-0.15875 -0.132292,-0.29104 -0.185209,-0.42334 -0.105833,-0.23812 -0.211666,-0.42333 -0.3175,-0.635 -0.05292,-0.13229 -0.15875,-0.42333 -0.264583,-0.82285 -1.193271,-3.18029 -1.963208,-6.60135 -2.227792,-10.12825 -0.07938,-0.95515 -0.105833,-1.90765 -0.105833,-2.86279 0,-15.27175 9.202208,-28.395077 22.354646,-34.147127 3.897312,2.57175 8.167687,7.10407 8.937625,7.45067 v -0.0529 c -0.05292,-1.03452 -2.016125,-6.25739 -3.209396,-9.331851 h 0.02646 v -0.02646 c 0.449792,-0.105833 0.902229,-0.211667 1.378479,-0.3175 0.238125,0.211667 0.47625,0.423333 0.717021,0.635 1.113896,0.928687 2.201333,1.907651 3.209396,2.915711 1.695979,1.66952 3.182937,3.36815 4.376208,4.826 1.034521,1.16681 2.069042,2.38654 3.288771,3.738557 l 0.02646,0.0265 v -0.0265 C 89.68962,99.189613 86.506678,92.085553 84.440282,87.524129 h 0.02646 c 0,-0.02646 -0.02646,-0.02646 -0.02646,-0.05292 0,0 0,-0.02646 -0.02646,-0.02646 0.423334,-0.02646 0.849313,-0.02646 1.299105,-0.02646 h 0.664104 c 0,0.01852 0.0079,0.0344 0.02646,0.05292 1.857375,2.889244 2.413,2.889244 4.243917,6.839474 0,0.0265 0.02646,0.0265 0.02646,0.0529 0.291042,-0.92869 0.796396,-2.83634 0.928688,-4.984748 0.02646,-0.343959 0.05292,-0.664105 0.05292,-1.008063 v -0.07937 c 0.185209,0.02646 0.611188,0.07937 0.796396,0.105833 2.280708,0.423334 6.125104,1.404938 8.114768,2.148418 1.80446,0.69056 4.9583,2.54529 6.604,3.7121 0.1323,0.10584 0.29105,0.21167 0.42334,0.29105 0.13229,0.10583 0.29104,0.21166 0.42333,0.29104 0.29104,0.21166 0.58208,0.44979 0.87577,0.69056 0.0529,0.0265 0.0794,0.0794 0.13229,0.10583 0.3175,0.26459 0.63765,0.50271 0.92869,0.76994 0.6641,0.58208 1.32556,1.19327 1.96321,1.80181 l -0.13229,-0.13229 c -0.63765,-0.6641 -1.32557,-1.24619 -2.01613,-1.85473 8.08831,6.813017 13.20536,16.994187 13.25827,28.500917 -0.0265,10.6045 -4.45558,20.14802 -11.56229,26.93723 v 0 z"
       id="path13"
       style="stroke-width:0.264583" />
    <path
       class="cls-4"
       d="m 122.91601,124.39649 c 0,-20.6031 -16.65553,-37.306245 -37.203067,-37.306245 -9.040812,0 -17.327562,3.235858 -23.775458,8.612188 -4.143375,-0.19579 -8.368771,-0.0423 -11.258021,0.14023 -1.984375,0.13229 -3.439583,1.95791 -3.069167,3.91583 0.709084,3.921127 1.918229,9.905997 2.971271,12.340167 -0.486833,1.397 -0.891646,2.83104 -1.211792,4.29948 -0.03439,0.14816 -0.06614,0.29898 -0.09789,0.44714 -0.0026,0.0159 -0.0053,0.0318 -0.01058,0.0476 -0.510646,2.43946 -0.780521,4.96094 -0.780521,7.55121 0,0.27781 0.01588,0.58737 0.03969,0.92075 0.513292,20.15331 16.967729,36.33258 37.189833,36.33258 4.638146,0 9.077854,-0.8546 13.173604,-2.40771 0,0 0,0 0,0 0,0 0,0 0,0 0.206375,-0.0794 0.41275,-0.15875 0.616479,-0.24077 0.02381,-0.008 0.04498,-0.0185 0.07144,-0.0238 0.15875,-0.0529 0.3175,-0.13229 0.449789,-0.18521 0.0291,-0.0106 0.0582,-0.0238 0.0847,-0.037 0.45244,-0.1905 0.89959,-0.39159 1.34409,-0.60061 3.65918,-1.70391 7.00352,-4.0005 9.89541,-6.77068 0,0 -0.005,0.003 -0.008,0.003 7.13052,-6.79714 11.57552,-16.39887 11.57552,-27.04306 z M 50.335506,100.13155 c -0.132292,-0.873117 0.502708,-1.666867 1.402291,-1.719787 2.219854,-0.10319 5.543021,-0.0556 7.082896,0.20902 -2.569104,2.693457 -4.736042,5.773207 -6.4135,9.141357 -1.095375,-2.22779 -1.762125,-5.63827 -2.071687,-7.63059 z"
       id="path14"
       style="fill:url(#D%C3%A9grad%C3%A9_sans_nom_60);stroke-width:0.264583" />
    <path
       d="m 85.535672,84.18512 c -10.705041,0 -20.825354,4.460875 -28.109333,11.361213 h 5.146146 c 2.534708,-2.03465 5.341937,-3.74386 8.358187,-5.06413 3.889375,2.56646 8.149167,7.09083 8.916459,7.43479 v -0.0529 c -0.05292,-1.03189 -2.010834,-6.24418 -3.201459,-9.313348 h 0.02646 v -0.02646 c 0.449792,-0.105833 0.899584,-0.211666 1.375834,-0.3175 l 0.714375,0.635 c 1.11125,0.926042 2.196041,1.904998 3.201458,2.910418 1.693333,1.66688 3.175,3.36021 4.365625,4.81542 1.031875,1.16416 2.06375,2.38125 3.280833,3.730617 l 0.02646,0.0265 v -0.0265 C 89.557335,99.160533 86.38234,92.069703 84.31859,87.518869 h 0.02646 c 0,-0.02646 -0.02646,-0.02646 -0.02646,-0.05292 0,0 0,-0.02646 -0.02646,-0.02646 0.423333,-0.02646 0.846667,-0.02646 1.296458,-0.02646 h 0.661459 c 0,0.01852 0.0079,0.0344 0.02646,0.05292 1.852083,2.883964 2.407708,2.883964 4.233333,6.826254 0,0.0265 0.02646,0.0265 0.02646,0.0529 0.291041,-0.92604 0.79375,-2.83104 0.926041,-4.974174 0.02646,-0.343958 0.05292,-0.661458 0.05292,-1.005417 v -0.07937 c 0.185208,0.02646 0.608542,0.07937 0.79375,0.105834 2.275417,0.423333 6.111875,1.402291 8.096249,2.143127 1.79917,0.68791 4.94771,2.54 6.58813,3.70416 0.13229,0.10584 0.29104,0.21167 0.42333,0.29105 0.13229,0.10583 0.29104,0.21166 0.42333,0.29104 0.29104,0.21166 0.58209,0.44979 0.87313,0.68791 0.0529,0.0265 0.0794,0.0794 0.13229,0.10584 0.3175,0.26458 0.635,0.50271 0.92604,0.76729 0.66146,0.58208 1.32292,1.19062 1.95792,1.79916 l -0.13229,-0.13229 c -0.635,-0.66146 -1.32292,-1.24354 -2.01084,-1.85208 8.06979,6.799787 13.17625,16.959787 13.22917,28.442707 -0.0265,10.58333 -4.445,20.10833 -11.53583,26.88166 v 0 c 0.0185,-0.0185 0.0344,-0.0265 0.0529,-0.0265 -3.20146,3.06916 -6.95854,5.55625 -11.08604,7.3025 -0.0794,0.0265 -0.15875,0.0794 -0.23813,0.10583 -0.132292,0.0529 -0.291042,0.13229 -0.449792,0.18521 -0.185208,0.0529 -0.343958,0.13229 -0.502708,0.18521 -0.05292,0.0265 -0.132292,0.0529 -0.185208,0.0794 -3.571875,1.34938 -7.408334,2.16958 -11.403542,2.35479 h -0.264583 c -0.15875,0 -0.3175,0 -0.502709,0.0265 h -1.878541 c -0.132292,0 -0.291042,0 -0.423334,-0.0265 -0.291041,0 -0.555625,-0.0265 -0.820208,-0.0529 -0.185208,0 -0.343958,-0.0265 -0.529167,-0.0265 -3.413124,-0.23813 -6.720416,-0.9525 -9.816041,-2.09021 0.01852,-0.0185 0.0344,-0.0344 0.05292,-0.0529 1.455208,-2.16958 0.132291,0.15875 1.561041,-2.43416 0.582084,-1.0848 1.084792,-2.11667 1.534584,-3.12209 1.243541,-2.8575 1.931458,-5.26521 2.301875,-6.82625 0.15875,-0.76729 0.264583,-1.32291 0.3175,-1.61396 0,0 -0.02646,0.0265 -0.02646,0.0529 -2.989792,5.34458 -4.60375,8.04333 -6.455834,9.63083 -1.031875,0.89959 -2.143125,1.42875 -3.571875,1.85209 -0.582083,0.0529 -1.11125,-0.0265 -1.561041,-0.18521 -0.608542,-0.34396 -1.217084,-0.71438 -1.799167,-1.08479 -0.132292,-0.13229 -0.264583,-0.26459 -0.343958,-0.39688 0.423333,-0.44979 1.058333,-1.19062 1.878541,-2.32833 1.613959,-2.27542 2.487084,-3.12208 4.180417,-5.79438 0.767292,-1.21708 1.402292,-2.43416 1.931458,-3.62479 1.666875,-3.75708 2.169584,-6.95854 2.116667,-7.3025 0,-0.0185 -0.0079,-0.0185 -0.02646,0 -0.02646,0.0794 -0.07937,0.13229 -0.105833,0.21167 -3.889375,7.91104 -8.466667,12.22375 -11.826875,13.86417 l -0.3175,0.15875 c -2.063751,0.92604 -3.307293,0.0794 -3.995209,-0.84667 -0.502709,-0.71438 -0.714375,-1.45521 -0.714375,-1.45521 -0.05292,-0.15875 -0.132292,-0.3175 -0.185209,-0.44979 0.608542,-0.635 1.561042,-1.61396 2.831042,-2.93688 2.354792,-2.43416 3.862917,-4.445 4.894792,-5.97958 2.910417,-4.36562 4.418542,-9.8425 4.841875,-11.95917 0.132292,-0.60854 0.15875,-0.92604 0.105834,-0.89958 h -0.02646 c -2.037292,5.13292 -9.04875,14.10229 -13.731875,16.29833 -1.931459,0.89959 -3.201459,0.39688 -3.995209,-0.42333 -0.767291,-0.68792 -1.307041,-2.02671 -2.143124,-4.36562 -1.095375,-3.31523 -1.957917,-6.58813 -2.2225,-10.10709 -0.07937,-0.9525 -0.105834,-1.905 -0.105834,-2.8575 0,-3.73327 0.150813,-7.62 1.9685,-12.42218 -1.023937,-1.77007 -1.113896,-2.51884 -1.404937,-4.68578 -2.325688,5.19907 -3.817938,11.47498 -3.709459,17.5604 0.396875,21.66938 18.176875,39.21125 39.84625,39.31708 22.225001,0.13229 40.296041,-17.85937 40.296041,-40.05791 -0.0265,-22.14556 -17.96522,-40.084304 -40.084385,-40.084304 z"
       id="path15"
       style="stroke-width:0.264583" />
    <path
       d="m 110.93832,131.00578 c 0.18521,-0.23812 0.37041,-0.50271 0.55562,-0.74083 1.21709,-1.77271 2.16959,-3.81 1.905,-4.60375 -0.0265,-0.0529 -0.11641,-0.30163 -0.23812,-0.42333 -1.06627,-1.05305 -1.95792,0.97895 -6.11188,2.88395 -2.54,1.16417 -8.625414,0.74084 -9.657289,2.01084 -0.291042,0.3175 -0.3175,0.635 -0.132292,0.92604 0.05292,0.10583 0.132292,0.21167 0.238125,0.3175 1.27,1.32292 5.847296,2.40771 8.307916,2.51354 h 0.58208 c 0.21167,0 0.39688,-0.0265 0.55563,-0.0529 0.0529,0 0.10583,-0.0264 0.15875,-0.0529 0.0185,0 0.0344,-0.008 0.0529,-0.0265 0.0265,0.0529 0.0265,0.10583 0.0265,0.15875 0.0265,0.0794 0.0529,0.13229 0.0529,0.21167 0.9525,4.41854 1.74625,9.525 -0.10583,13.73187 -1.29646,0 -2.43417,-0.37042 -3.57188,-0.92604 -0.87312,-0.42333 -1.69333,-0.9525 -2.59292,-1.42875 1.13771,1.11125 2.24896,1.95792 3.38667,2.48708 0.47625,0.23813 0.92604,0.39688 1.37583,0.52917 2.80459,0.74083 5.29167,-0.635 6.53521,-4.7625 0,-0.0106 0.005,-0.0212 0.0106,-0.0318 -1.52664,2.20927 -2.51883,3.68035 -4.48204,4.07987 -0.0635,0.0132 -0.0661,0.0185 -0.12435,0.0265 1.87854,-3.65125 1.97643,-8.255 1.50018,-12.35604 -0.0794,-0.79375 -0.21166,-1.5875 -0.3175,-2.35479 v -0.0265 c 0.635,-0.37042 1.4023,-1.16417 2.09021,-2.09021 z m -3.86292,-2.83104 z"
       id="path16"
       style="stroke-width:0.264583" />
    <path
       d="m 92.541838,115.97216 c -0.02646,-0.0529 -0.05292,-0.10584 -0.07937,-0.15875 -0.02646,-0.0265 -0.02646,-0.0529 -0.05292,-0.10584 -0.240771,-0.44979 -0.534459,-0.87312 -0.854604,-1.24354 -0.07937,-0.0794 -0.161396,-0.18521 -0.240771,-0.26458 -0.320146,-0.34396 -0.66675,-0.66146 -1.042459,-0.87313 -0.07937,-0.0529 -0.161395,-0.10583 -0.267229,-0.15875 -0.640291,-0.29104 -1.336146,-0.37041 -2.029354,-0.0264 -0.293687,0.15875 -0.560917,0.37041 -0.854604,0.66145 -0.07938,0.10584 -0.161396,0.21167 -0.267229,0.3175 -0.240771,0.3175 -0.373063,0.71438 -0.399521,1.16417 h -0.02646 v 0.18521 c 0,0.15875 0,0.34396 0.02646,0.52917 0.02646,0.1852 0.05292,0.37041 0.105833,0.52916 0.07937,0.3175 0.187854,0.60854 0.320146,0.92604 0.07938,0.15875 0.161396,0.3175 0.240771,0.4498 0.07937,0.13229 0.132292,0.26458 0.214312,0.39687 0.05292,0.0794 0.07938,0.13229 0.132292,0.18521 0.02646,0.0529 0.07938,0.10583 0.105833,0.15875 0.105834,0.15875 0.187855,0.3175 0.293688,0.44979 0.293687,0.42333 0.66675,0.79375 1.068917,1.11125 0.105833,0.0794 0.214312,0.15875 0.320145,0.23813 0.132292,0.10583 0.26723,0.1852 0.399521,0.26458 0.425979,0.23812 0.828146,0.39687 1.254125,0.44979 0.161396,0.0265 0.320146,0.0265 0.508,0.0265 0.214313,0 0.425979,-0.0529 0.640292,-0.13229 0.05292,-0.0265 0.105833,-0.0265 0.132292,-0.0529 0.346604,-0.15875 0.666749,-0.44979 0.960437,-0.84667 0.07938,-0.13229 0.132292,-0.26458 0.187854,-0.42333 0.05292,-0.15875 0.07937,-0.3175 0.07937,-0.50271 0,-0.18521 0,-0.37041 -0.02646,-0.58208 -0.07938,-0.82021 -0.399521,-1.77535 -0.854604,-2.67494 z"
       id="path17"
       style="stroke-width:0.264583" />
    <path
       d="m 103.00876,110.67785 c 0.0529,0.55562 0.18785,1.1377 0.42597,1.72243 0.0529,0.18521 0.1614,0.39688 0.24078,0.58209 0.0529,0.10583 0.0794,0.21166 0.16139,0.29104 0.13229,0.23812 0.29369,0.47625 0.45508,0.68791 0.10584,0.18521 0.24078,0.34396 0.37307,0.50271 0.13229,0.15875 0.26723,0.3175 0.39952,0.44979 0.10583,0.0794 0.18785,0.18521 0.29369,0.26459 0.0794,0.0794 0.18785,0.15875 0.29368,0.23812 0.0794,0.0529 0.13229,0.10584 0.21432,0.15875 0.37306,0.26459 0.80168,0.44979 1.2012,0.50271 0.1614,0.0265 0.32015,0.0265 0.48155,0.0265 0.13229,-0.0265 0.26722,-0.0529 0.39952,-0.0794 0.39952,-0.10583 0.80168,-0.34395 1.17475,-0.71437 0.13229,-0.15875 0.24077,-0.37042 0.32014,-0.60854 0.0265,-0.0794 0.0265,-0.13229 0.0529,-0.21167 0.0529,-0.21167 0.0794,-0.44979 0.0794,-0.68792 v -0.37041 c 0,-0.23813 -0.0265,-0.50271 -0.0794,-0.76729 -0.0529,-0.26459 -0.10583,-0.52917 -0.16139,-0.79375 -0.0265,-0.1323 -0.0794,-0.26459 -0.10584,-0.39688 -0.0529,-0.13229 -0.0794,-0.26458 -0.13229,-0.39687 -0.0529,-0.1323 -0.10583,-0.26459 -0.1614,-0.39688 -0.0529,-0.13229 -0.10583,-0.26458 -0.18785,-0.39687 -0.0529,-0.1323 -0.13229,-0.26459 -0.18785,-0.37042 -0.0265,-0.0265 -0.0529,-0.0794 -0.0529,-0.13229 -0.0265,-0.0529 -0.0529,-0.10584 -0.10584,-0.15875 -0.10583,-0.10584 -0.18785,-0.21167 -0.24077,-0.3175 -0.10583,-0.15875 -0.24077,-0.3175 -0.37306,-0.47625 -0.0529,-0.0529 -0.0794,-0.10584 -0.13229,-0.15875 -0.0794,-0.10584 -0.18786,-0.18521 -0.26723,-0.26459 -0.13229,-0.10583 -0.24077,-0.21166 -0.37306,-0.29104 -0.13229,-0.10583 -0.24077,-0.18521 -0.37307,-0.23812 -0.0529,-0.0265 -0.10583,-0.0529 -0.16139,-0.0794 -0.0529,-0.0265 -0.10583,-0.0529 -0.1614,-0.0529 -0.0529,-0.0265 -0.10583,-0.0265 -0.16139,-0.0529 -0.0556,-0.0265 -0.10584,-0.0529 -0.1614,-0.0529 -0.16139,-0.0529 -0.32014,-0.0529 -0.48154,-0.0529 -0.10583,0 -0.24077,0 -0.3466,0.0264 -0.10584,0.0265 -0.24078,0.0529 -0.34661,0.10584 -0.0794,0.0265 -0.13229,0.0529 -0.18785,0.0794 -0.18786,0.0794 -0.34661,0.18521 -0.53446,0.3175 -0.18786,0.13229 -0.37306,0.29104 -0.53446,0.44979 -0.10583,0.1323 -0.21431,0.23813 -0.29369,0.34396 -0.0529,0.0794 -0.0794,0.15875 -0.13229,0.26459 -0.0265,0.0529 -0.0265,0.10583 -0.0529,0.15875 -0.0265,0.10583 -0.0529,0.21166 -0.0794,0.3175 -0.0265,0.13229 -0.0529,0.23812 -0.0529,0.34395 0,0.10584 -0.0265,0.21167 0.0265,0.3175 0,0.1323 0.0265,0.23813 0.0265,0.37042 z"
       id="path18"
       style="stroke-width:0.264583" />
    <path
       d="m 111.6183,143.6952 c 0,0 0.0106,-0.0159 0.0159,-0.0212 0,0 -0.008,0.0106 -0.0159,0.0212 z"
       id="path19"
       style="stroke-width:0.264583" />
    <path
       class="cls-1"
       d="m 87.252818,86.412911 c 0.846666,0.105834 6.746874,0.370417 13.123332,3.095625 -1.190624,-2.06375 -3.069166,-4.815416 -4.365624,-6.614583 -0.635,-0.899583 -1.772709,-1.137708 -2.69875,-0.608541 -1.957917,1.164166 -4.259792,2.725208 -6.058958,4.127499 z"
       id="path20"
       style="fill:#f29130;stroke-width:0.264583" />
  </g>
</svg>
